<svg xmlns="http://www.w3.org/2000/svg" viewBox="91.93 122.12 432.58 447.97"><g id="Capa_4" data-name="Capa 4"><path d="M235.3,166.77c-80.48,41.19-129.38,66.8-132,69-2.47,2-2.76,59.37-.29,59.37.87,0,5.39-1.89,9.9-4.36,10-5.39,183.66-88.34,190.79-91.11l5.24-2,58.8,27.79c53,25,130,60.84,142.33,66.22l4.66,2V234.3l-66.51-33.76c-36.68-18.63-82.37-41.92-101.73-51.81s-36.38-18-37.84-18S274.16,147,235.3,166.77Z" /><path d="M500.17,311.87c-4.36,1-14.4,3.2-22.41,4.95-88.34,18.92-188,53.85-278.84,97.94-39,18.92-93.14,48.32-93.14,50.65,0,.58,1.74,1.89,4.07,2.62s19.07,8.73,37.69,17.61,35.37,16.15,37.12,16.15c2,0,11.93-6.4,24.74-16,87.9-65.63,183.52-114.24,291.5-148L514,333.7l.44-12.08C514.87,307.94,515.46,308.23,500.17,311.87Z" /><path d="M102.43,319.44c-.58.44-1,25.76-1,56,0,53.12.15,55.16,2.77,54.28,1.45-.43,11.35-5.53,22.12-11.2s24.45-12.66,30.41-15.43,18.49-8.44,27.65-12.66c43.81-20.23,107.41-43.22,156.45-56.9,16-4.37,29.69-8.59,30.28-9.17,3.34-3.2-80.92-6-186.14-6C140.12,318.42,102.87,318.86,102.43,319.44Z" /><path d="M481.25,367c-43.51,16.74-58.5,23.43-95.61,42.35S326,441.69,291.48,465.12c-28.24,18.92-70.59,50.94-71.9,54-.43,1.17,85.58,42.35,88.49,42.35,1.16,0,7.42-3.34,13.82-7.42,30.57-19.65,148.45-92.41,178.72-110.46,15.28-9.17,14.12-4.8,14.12-49.48,0-21.69-.44-39.3-1-39.3C513,355,498.43,360.33,481.25,367Z" /></g></svg>